<svg xmlns="http://www.w3.org/2000/svg" width="1400" height="620" viewBox="0 0 1400 620">
<defs>
<linearGradient id="rainbow" x1="0" y1="0" x2="1" y2="1">
<stop stop-color="#ff3b8d"/><stop offset=".2" stop-color="#ff8a3d"/>
<stop offset=".4" stop-color="#ffe45c"/><stop offset=".6" stop-color="#48e6a3"/>
<stop offset=".8" stop-color="#48bfff"/><stop offset="1" stop-color="#bd70ff"/>
</linearGradient>
<linearGradient id="blue" x1="0" y1="0" x2="1" y2="1"><stop stop-color="#38bdf8"/>
<stop offset=".5" stop-color="#5b8cff"/><stop offset="1" stop-color="#9b6cff"/></linearGradient>
<filter id="shadow"><feDropShadow dx="0" dy="12" stdDeviation="14" flood-opacity=".25"/></filter>
<filter id="glow"><feGaussianBlur stdDeviation="10" result="b"/><feMerge><feMergeNode in="b"/>
<feMergeNode in="SourceGraphic"/></feMerge></filter>
</defs><rect width="1400" height="620" rx="34" fill="#091321"/>
<circle cx="1040" cy="150" r="250" fill="#39b9ff" opacity=".17" filter="url(#glow)"/>
<circle cx="380" cy="500" r="260" fill="#876cff" opacity=".13" filter="url(#glow)"/>
<rect x="115" y="70" width="1170" height="475" rx="28" fill="#111c2b" stroke="#5c7894" stroke-opacity=".55"/>
<rect x="115" y="70" width="1170" height="52" rx="28" fill="#172639"/>
<circle cx="148" cy="96" r="7" fill="#ff6b8a"/><circle cx="173" cy="96" r="7" fill="#ffd15c"/><circle cx="198" cy="96" r="7" fill="#55d98b"/>
<rect x="150" y="145" width="1100" height="340" rx="22" fill="url(#blue)" opacity=".13"/>
<path d="M650 215 760 190v105l-110 7zM775 185h115v100l-115 8zM650 318l110-6v106l-110-15zM775 307l115-7v132l-115-16z" fill="#67cfff" opacity=".9"/>
<rect x="150" y="485" width="1100" height="35" rx="17" fill="#0c1421" opacity=".9"/>
<rect x="575" y="493" width="250" height="19" rx="10" fill="#26394e"/>
<text x="700" y="585" text-anchor="middle" font-family="Segoe UI,Arial" font-size="23" font-weight="600" fill="#dcecff">A clean, glassy desktop built for the web.</text>
</svg>